<svg version="1.2" xmlns="http://www.w3.org/2000/svg" viewBox="0 0 826 826" width="826" height="826"><defs><clipPath clipPathUnits="userSpaceOnUse" id="cp1"><path d="m0 0h826v826h-826z"/></clipPath></defs><style>.a{fill:#e7b6a2}.b{fill:#dd7b38}.c{fill:#fff}.d{fill:#283336}.e{fill:#01466a}</style><g clip-path="url(#cp1)"><g style="opacity:.3"><path class="a" d="m846 460c0 185.6-154 336-344 336-31.7 0-62.3-4.2-91.4-12q-11-2.9-21.6-6.5c-183-29.5-233-225.5-223.4-385.2 3.3-6.1 6.6-12.1 9.9-18.1 43.8-78.3 91.5-166.8 161.9-221.9 5.9-4.6 11.9-8.9 18.2-13.1 40.4-25.2 86.4-45.2 134.4-37.2 48 6 92 10 140 4 8.3-1 15.3-0.6 21.1 1 5.9 1.6 10.7 4.4 14.8 8 18.1 23 30.1 49 54.1 69 46 38 118 56 126 114 4 32-18 64-6 99q1.9 10.2 3.3 20.6c1.8 13.9 2.7 28 2.7 42.4z"/></g><path class="b" d="m844 826h-521.6c-9.6-24.2-5.5-52.6 7.5-75.2 13-22.5 34-39.7 57.1-51.8 9.5-4.9 19.6-9.1 30.2-9.8 15.8-0.9 31 6.3 43.9 15.4 12.9 9.1 24.2 20.3 37.3 29.2 28.1 19.2 63.8 26.9 97.3 21 17-3 34.3-10 44.9-23.7 8.3-10.8 11.7-24.5 14.5-37.9 7.2-34.4 12.5-69.6 25.3-102.4 6.5-16.7 15.7-33.5 31.2-42.7 14.4-8.6 32.3-9.2 49.1-7.9 30.2 2.3 61.6 10.7 83.3 31.9z"/><path class="c" d="m861.8 545.7c-11.6-11.6-26.2-19.8-41.5-25.4-15.4-5.7-31.5-9.1-47.8-11.5-8.1-1.2-16.2-2-24.3-1.8-8.1 0.2-16.1 1.5-23.5 4.4-15.1 5.8-27.8 16.5-38.9 28.3-2.8 2.9-5.4 6.1-8 9.2-2.5 3.2-5.1 6.4-7.4 9.7-4.8 6.6-9.2 13.5-13.3 20.6-8.2 14.1-15.3 29-22.2 43.9-13.6 29.9-26.6 60.8-45.9 88.5-4.7 6.9-10 13.5-15.6 19.8-5.6 6.4-11.8 12.2-18.4 17.6l-5 4-5.3 3.6c-3.5 2.5-7.2 4.6-11 6.7-7.6 4-15.9 7.2-24.6 8.8-8.6 1.8-17.9 1.7-26.5 0-8.6-1.7-16.8-4.7-24.5-8.1-15.5-6.7-29.8-14.8-44.9-18.3-15-3.6-31-3-46.1 1.2-15 4.1-29.1 11.6-40.8 21.8-11.8 10.2-21.4 22.9-28.5 36.9-7.1 14-11.8 29.3-13.9 44.8l-14.5-2.1c2.6-17.1 8-33.7 16.1-49.1 8.1-15.3 18.9-29.3 32.3-40.5 13.4-11.2 29.3-19.4 46.2-23.7 16.9-4.4 34.9-4.9 51.9-0.5 8.6 2.2 16.6 5.5 24.2 9 7.6 3.6 14.9 7.4 22.3 10.7 7.3 3.4 14.7 6.2 22.2 7.8 7.6 1.6 15.2 1.8 22.7 0.4 7.6-1.3 15-4 22-7.6 3.5-1.8 7-3.7 10.3-6l5-3.3 4.7-3.6c6.3-5 12.2-10.4 17.6-16.4 5.5-5.9 10.6-12.1 15.3-18.8 4.8-6.5 9.2-13.4 13.3-20.4 4.2-7 8.1-14.2 11.9-21.5 7.5-14.6 14.3-29.6 21.4-44.5 7.2-15 14.6-29.9 23.2-44.1 4.3-7.2 8.9-14.2 13.9-20.9 2.4-3.4 5.1-6.6 7.7-9.8 2.8-3.2 5.5-6.4 8.5-9.3 1.5-1.5 2.9-3.1 4.4-4.5l4.6-4.3q4.7-4.2 9.8-7.9c6.8-5 14.2-9.3 22.2-12.2 8-2.9 16.6-4.2 25-4.3 8.5 0 16.8 0.9 25 2.3 16.3 2.7 32.7 6.3 48.2 12.4 15.5 6 30.2 14.6 41.9 26.6z"/><path class="c" d="m744.7 564.8c-2.2-1-3.5-3.1-2.8-4.8 0.5-1.5 1.9-1.9 3.8-1.8 2 0.2 3.9 1.4 5.1 3.1 0.8 1.6 1.2 3.4 0 4.2-1.2 0.6-2.7 0.7-4.2 0.2q-1-0.3-1.9-0.9z"/><path class="c" d="m744.4 594.2c-2.2-1.2-3.6-3.2-3.1-4.6 0.4-1.3 1.8-1.6 3.6-1.4 2 0.4 4 1.6 5.2 3.3 1 1.5 1.5 3.2 0.4 3.8-1.1 0.4-2.6 0.4-4.2-0.2q-0.9-0.3-1.9-0.9z"/><path class="c" d="m755.7 578.1c-1.9-2.9-6-5.4-0.1-7 0.4-0.2 1-0.2 1.5 0 2 0.6 4.4 2.1 5.2 4.9 0.5 2.2-1.4 4.1-3.6 3.5q-0.4-0.1-0.8-0.2-1.1-0.5-2.2-1.2z"/><path class="c" d="m769.1 574.5c0.7-3.4-0.2-8 5-5 0.5 0.3 0.8 0.7 1 1.1 1 2 1.5 4.7 0 7.2-1.1 1.9-3.9 1.8-4.9-0.1q-0.3-0.5-0.4-0.8-0.4-1.1-0.7-2.4z"/><path class="c" d="m805.3 573.3c0.7-3.4-0.2-8.1 5-5 0.4 0.3 0.8 0.6 1 1.1 1 2 1.5 4.7 0 7.2-1.1 1.9-3.9 1.8-5-0.2q-0.2-0.4-0.3-0.7-0.5-1.1-0.7-2.4z"/><path class="c" d="m780.8 559.4c0.8-3.4-0.2-8.1 5-5 0.5 0.2 0.9 0.6 1.1 1.1 0.9 1.9 1.4 4.7 0 7.2-1.2 1.8-4 1.8-5-0.2q-0.2-0.4-0.4-0.8-0.4-1.1-0.7-2.3z"/><path class="c" d="m764.9 601.5c-2-2.9-6-5.5-0.2-7.1 0.5-0.1 1-0.1 1.5 0 2.1 0.7 4.4 2.2 5.2 5 0.6 2.1-1.4 4.1-3.5 3.5q-0.5-0.2-0.8-0.3-1.1-0.4-2.2-1.1z"/><path class="c" d="m811.3 591.2c-1.9-2.8-6-5.4-0.1-7 0.4-0.2 1-0.2 1.4 0 2.1 0.7 4.5 2.2 5.2 5 0.6 2.1-1.3 4-3.5 3.4q-0.5-0.1-0.8-0.2-1.1-0.5-2.2-1.2z"/><path class="c" d="m791.1 580c-1.9-2.9-5.9-5.5-0.1-7.1 0.5-0.1 1-0.1 1.5 0 2.1 0.7 4.4 2.2 5.2 5 0.6 2.1-1.4 4.1-3.5 3.5q-0.5-0.2-0.9-0.3-1.1-0.4-2.2-1.1z"/><path class="c" d="m736.5 578c-1.5-2.2-4.5-4.1 0-5.5 0.3-0.1 0.8-0.1 1.1 0 1.6 0.5 3.4 1.7 3.9 3.8 0.4 1.7-1.1 3.2-2.7 2.8q-0.4-0.1-0.6-0.2-0.9-0.3-1.7-0.9z"/><path class="c" d="m763.2 561.5c-1.4-2.2-4.5-4.1 0-5.5 0.4-0.1 0.8-0.1 1.1 0 1.6 0.5 3.4 1.7 3.9 3.8 0.5 1.6-1.1 3.2-2.7 2.8q-0.4-0.1-0.6-0.2-0.8-0.4-1.7-0.9z"/><path class="c" d="m783.4 607.1c-1.4-2.3-4.4-4.2 0-5.5 0.4-0.1 0.8-0.2 1.2 0 1.5 0.4 3.3 1.6 3.9 3.7 0.4 1.7-1.1 3.2-2.8 2.8q-0.3-0.1-0.6-0.2-0.8-0.3-1.7-0.8z"/><path class="c" d="m809.6 606.7c-1.4-2.2-4.5-4.1 0-5.5 0.4-0.1 0.8-0.1 1.1 0 1.6 0.5 3.4 1.6 3.9 3.8 0.4 1.6-1.1 3.2-2.7 2.7q-0.4-0.1-0.6-0.1-0.9-0.4-1.7-0.9z"/><path class="c" d="m763.6 587.7c-1.5-2.2-4.5-4.1-0.1-5.5 0.4-0.1 0.8-0.1 1.2 0 1.6 0.5 3.3 1.6 3.9 3.8 0.4 1.6-1.1 3.2-2.7 2.7q-0.4-0.1-0.7-0.2-0.8-0.3-1.6-0.8z"/><path class="c" d="m783.1 588.6c-0.7 2.5-0.3 6.1-4.2 3.5-0.3-0.2-0.6-0.5-0.7-0.9-0.6-1.5-0.9-3.6 0.4-5.4 1-1.4 3.2-1.2 3.9 0.4q0.1 0.3 0.3 0.6 0.2 0.8 0.3 1.8z"/><path class="c" d="m797.9 595.3c-0.8 2.6-0.4 6.1-4.3 3.5-0.3-0.2-0.6-0.5-0.7-0.8-0.6-1.6-0.9-3.7 0.5-5.5 1-1.3 3.1-1.1 3.8 0.4q0.2 0.4 0.3 0.6 0.2 0.9 0.4 1.8z"/><path class="d" d="m733.4 825.3c-7.4-4.4-14.3-9.9-19.6-16.8-5.4-6.8-9.2-15-10.2-23.7-1-8.6 0.3-17.5 3.5-25.6 1.6-4.1 3.8-7.9 6.8-11.2 2.9-3.3 6.7-6 11.1-7.1 2.1-0.6 4.4-0.8 6.6-0.6 2.3 0.2 4.4 0.8 6.5 1.7 4.1 1.6 7.7 4.3 11.1 7.1 3.3 2.8 6.3 5.9 9.4 8.9l9.1 9.1c3.1 3 6 6.3 9.2 8.9 1.7 1.3 3.4 2.5 5.3 3.3 1.8 0.8 3.8 1.4 5.7 1.1 1.8-0.2 3.6-1.1 4.8-2.6 1.2-1.5 2-3.3 2.3-5.3 0.7-3.9-0.5-8.1-1.6-12.2-2.4-8.3-4.3-16.8-5.2-25.5-1-8.6-0.8-17.5 1.3-26.1 1-4.3 2.6-8.5 4.7-12.4 2.2-3.9 5-7.5 8.7-10.2 3.6-2.7 8.3-4.7 13.2-4 4.7 0.6 9.1 3.6 11.6 7.5 5.1 7.8 5.7 17.1 7.2 25.2 0.9 4.1 2.2 8.2 4.2 11.6 1.1 1.7 2.3 3.2 3.8 4.4 1.5 1.2 3.3 1.9 5.1 2.4 1.7 0.3 3.2-0.1 4.5-1.1 1.3-1.1 2.4-2.8 3.3-4.6 1-1.8 1.8-3.8 3-5.8 1.1-2.1 2.7-3.9 4.5-5.5 7-6.1 17.5-8.2 26.2-4.1h0.1l1.5 0.6-0.4 1.6-33.5 144.6-0.8-0.2 30.4-145.2 1.1 2.2h-0.1c-7-3.4-16.1-1.8-22 3.4-1.5 1.3-2.8 2.8-3.8 4.4-1 1.7-1.9 3.7-2.9 5.7-1.1 2-2.3 4.1-4.3 5.7-2 1.8-5.1 2.4-7.6 1.8-2.4-0.6-4.6-1.6-6.5-3.1-1.9-1.6-3.4-3.4-4.5-5.4-2.4-4-3.7-8.4-4.6-12.7-0.9-4.3-1.2-8.6-2.2-12.7-0.9-4.1-2.2-8.1-4.4-11.4-2.1-3.4-5.5-5.7-9.3-6.2-3.8-0.6-7.8 0.9-11 3.3-3.3 2.4-6 5.6-8 9.2-2 3.6-3.5 7.6-4.5 11.6-2 8.2-2.3 16.8-1.5 25.3 0.8 8.4 2.7 16.8 4.9 25.1 1.2 4.1 2.5 8.5 1.7 13.2-0.4 2.3-1.3 4.5-2.9 6.3-1.6 1.9-3.9 3.1-6.3 3.3-2.4 0.4-4.8-0.3-6.8-1.3-2.1-0.9-3.9-2.2-5.7-3.6-1.7-1.4-3.3-2.9-4.8-4.5l-4.5-4.6-9.1-9.2c-3-3-6-6.1-9.2-8.9-3.2-2.8-6.7-5.3-10.5-6.9-2-0.8-4-1.4-6-1.6-2.1-0.2-4.2 0-6.2 0.5-4 0.9-7.5 3.5-10.3 6.6-2.9 3.1-5 6.8-6.7 10.7-3.1 7.9-4.5 16.5-3.5 25 0.9 8.5 4.5 16.5 9.7 23.3 5.2 6.7 12 12.3 19.3 16.7z"/><path class="a" d="m186.1-76c36.8 2.3 74 4.6 109.1 16.1 35 11.4 68.1 33.2 85.5 65.7 12.1 22.4 15.9 48.9 12.7 74.1-3 24.8-15.1 51.3-38.6 59.6-25.3 8.9-52.1-6.2-74.6-20.7q-25.7-16.5-51.5-33.1c-15-9.7-35.9-19.1-49.2-7.1-7 6.3-8.9 16.7-7.2 25.8 1.6 9.2 6.1 17.6 10.5 25.8 24 45.4 44 97.2 32.5 147.2-5.6 24.5-24.4 50.4-49.5 48.3-25.3-2.1-39-30-47.8-53.8-8.8-23.9-22.9-51.7-48.3-53.3-2.9-0.1-5.8 0.1-8.5 1-12.7 4.6-13.8 21.7-17.8 34.7-7.8 26.1-37.7 43.3-64.1 37v-367.3z"/><path class="c" d="m246.9-63.6c16.4 5.5 32.2 13.4 45.6 24.5 6.6 5.5 12.7 11.8 17.8 18.8 5.1 7.1 9.2 14.9 12 23.1 5.8 16.4 6.9 34.3 4.2 51.4-1.5 8.6-4.1 17-8.5 24.7-4.3 7.5-10.4 14.4-18.3 18.3-4 2-8.3 3.3-12.6 3.9-4.4 0.5-8.9 0.2-13.2-0.5-4.3-0.7-8.5-2-12.6-3.6q-6.1-2.4-11.8-5.5c-7.7-4-14.9-8.8-22.2-13.5l-21.8-14-11-7c-3.6-2.3-7.2-4.5-11-6.4-3.9-1.9-7.8-3.5-11.9-4.3-4.1-0.9-8.4-1.1-12.3 0.3-3.8 1.4-7.1 4.1-9 7.7-1.9 3.6-2.6 7.8-2.4 12 0.2 4.1 1.4 8.2 3 12.1 1.6 3.9 3.6 7.7 5.7 11.5 8.1 15.3 15.5 31.1 20.9 47.6 5.6 16.5 9 33.8 8.6 51.3-0.2 8.8-1.5 17.5-3.8 26-1.3 4.2-3 8.3-5.1 12.2-2 3.9-4.5 7.6-7.4 11-3 3.3-6.4 6.3-10.3 8.6-3.8 2.3-8.3 3.8-12.8 4.2-4.6 0.3-9.2-0.3-13.4-2-4.3-1.6-8.1-4.2-11.3-7.4-6.5-6.2-11-13.9-14.8-21.8-1.9-3.9-3.5-8-5.1-12.1-1.5-4-3-8-4.8-11.9-3.5-7.7-7.7-15.2-13.5-21.3-2.9-2.9-6.1-5.6-9.8-7.3-3.6-1.8-7.7-2.6-11.7-2.7-4 0-7.5 1.7-9.9 4.7-2.4 3.1-3.7 7.1-4.8 11.2-1.1 4.1-1.9 8.3-3.3 12.6-1.3 4.3-3.6 8.3-6.2 12-2.6 3.7-5.9 6.9-9.4 9.6-3.6 2.7-7.5 5-11.7 6.6-4.2 1.6-8.6 2.9-13.1 3.2-4.5 0.4-9.1 0.2-13.5-0.8h-0.1l-1.5-0.3v-1.7l1.6-297.7h0.8l1.6 297.7-1.6-1.9h0.1c16.1 3.8 33.9-3.7 43.7-17 2.4-3.3 4.5-6.9 5.7-10.9 1.4-3.9 2.1-8.2 3.3-12.4 1.2-4.2 2.6-8.6 5.5-12.4 1.5-1.9 3.5-3.5 5.7-4.6 2.2-1.1 4.7-1.5 7-1.5 4.7 0.1 9.2 1 13.4 3.1 4.1 2 7.6 4.9 10.7 8.1 6.2 6.6 10.5 14.4 14.1 22.3 3.6 8.1 6.1 16.3 9.8 24 3.6 7.7 8 15.1 14 20.9 3 2.9 6.4 5.3 10.2 6.8 3.8 1.5 8 2.1 12 1.8 4.1-0.3 8.1-1.6 11.6-3.7 3.6-2.1 6.7-4.9 9.5-8 2.8-3.1 5.2-6.7 7.2-10.4 1.9-3.7 3.6-7.6 4.8-11.6 2.3-8.2 3.6-16.7 3.8-25.2 0.4-17.1-2.8-34.2-8.2-50.5-5.3-16.3-12.6-32-20.6-47.3-2-3.8-4.1-7.6-5.7-11.7-1.7-4.1-3-8.4-3.2-12.9-0.2-4.5 0.6-9.1 2.8-13.1 2.1-4.1 5.9-7.2 10.2-8.8 4.4-1.5 9.1-1.2 13.4-0.3 4.4 0.9 8.5 2.6 12.4 4.5 3.9 2 7.6 4.3 11.2 6.6l10.9 7.1 21.8 14.1c7.3 4.6 14.4 9.4 22 13.5q5.7 3.1 11.6 5.4c4 1.6 8.1 2.8 12.3 3.6 4.2 0.7 8.5 1 12.7 0.5 4.2-0.6 8.3-1.8 12.1-3.7 7.6-3.7 13.5-10.3 17.8-17.7 4.2-7.4 6.9-15.7 8.4-24.1 2.7-16.9 1.7-34.6-4-50.8-2.7-8.2-6.7-15.9-11.7-22.8-5.1-7-11.1-13.3-17.6-18.8-13.3-11.1-28.9-19-45.2-24.5z"/><path class="e" d="m234.3 207c1.2-2.3 3.4-3.7 5.2-2.9 1.6 0.5 2.1 2 2 4-0.3 2.2-1.6 4.3-3.4 5.5-1.8 0.9-3.7 1.3-4.5 0-0.7-1.2-0.8-2.9-0.2-4.5q0.3-1.1 0.9-2.1z"/><path class="e" d="m202.8 206.8c1.2-2.4 3.4-3.9 5-3.4 1.3 0.5 1.7 1.9 1.4 3.8-0.4 2.3-1.7 4.3-3.5 5.7-1.7 1.1-3.4 1.6-4.1 0.4-0.5-1.2-0.4-2.8 0.2-4.5q0.4-1 1-2z"/><path class="e" d="m220 218.9c3.1-2.1 5.9-6.4 7.6-0.2 0.2 0.6 0.2 1.1 0 1.6-0.7 2.3-2.3 4.8-5.3 5.6-2.3 0.6-4.4-1.5-3.8-3.7q0.2-0.6 0.3-0.9 0.5-1.2 1.2-2.4z"/><path class="e" d="m223.9 233.3c3.7 0.8 8.7-0.2 5.4 5.4-0.3 0.4-0.7 0.8-1.2 1.1-2.1 1-5.1 1.5-7.7-0.1-2.1-1.2-2-4.2 0.1-5.3q0.5-0.2 0.9-0.4 1.1-0.4 2.5-0.7z"/><path class="e" d="m225.2 272.1c3.7 0.8 8.7-0.2 5.4 5.4-0.3 0.5-0.7 0.9-1.2 1.1-2.1 1-5 1.6-7.7 0-2-1.2-1.9-4.2 0.1-5.3q0.5-0.3 0.9-0.5 1.2-0.4 2.5-0.7z"/><path class="e" d="m240.2 245.9c3.6 0.8 8.6-0.2 5.3 5.4-0.2 0.4-0.6 0.8-1.1 1.1-2.1 1-5.1 1.5-7.8-0.1-2-1.2-1.9-4.2 0.2-5.3q0.5-0.2 0.8-0.4 1.2-0.4 2.6-0.7z"/><path class="e" d="m195 228.7c3.1-2.1 5.8-6.4 7.6-0.1 0.1 0.5 0.1 1.1-0.1 1.6-0.7 2.2-2.3 4.7-5.3 5.6-2.3 0.6-4.4-1.5-3.7-3.8q0.1-0.5 0.2-0.9 0.5-1.2 1.3-2.4z"/><path class="e" d="m205.9 278.6c3.1-2.1 5.9-6.4 7.6-0.2 0.2 0.6 0.2 1.1 0 1.6-0.7 2.3-2.3 4.8-5.3 5.6-2.3 0.6-4.4-1.5-3.7-3.7q0.1-0.6 0.2-1 0.5-1.1 1.2-2.3z"/><path class="e" d="m218.1 256.9c3.1-2.1 5.8-6.4 7.6-0.1 0.1 0.5 0.1 1.1-0.1 1.6-0.7 2.2-2.3 4.7-5.3 5.6-2.3 0.6-4.4-1.5-3.7-3.8q0.1-0.5 0.2-0.9 0.5-1.2 1.3-2.4z"/><path class="e" d="m220.1 198.3c2.4-1.6 4.5-4.8 5.9-0.1 0.1 0.4 0.2 0.9 0 1.3-0.5 1.7-1.7 3.6-4 4.1-1.8 0.5-3.5-1.1-3-2.9q0.1-0.4 0.2-0.7 0.4-0.8 0.9-1.7z"/><path class="e" d="m237.9 227c2.3-1.6 4.4-4.9 5.9-0.1 0.1 0.4 0.1 0.9 0 1.3-0.6 1.7-1.8 3.6-4.1 4.1-1.8 0.5-3.4-1.1-2.9-2.9q0.1-0.4 0.2-0.7 0.3-0.8 0.9-1.7z"/><path class="e" d="m189 248.7c2.3-1.6 4.4-4.8 5.9 0 0.1 0.4 0.1 0.8 0 1.2-0.5 1.7-1.8 3.6-4.1 4.2-1.7 0.4-3.4-1.2-2.9-3q0.1-0.4 0.2-0.6 0.3-0.9 0.9-1.8z"/><path class="e" d="m189.3 276.8c2.4-1.6 4.5-4.8 5.9 0 0.2 0.4 0.2 0.8 0 1.2-0.5 1.7-1.7 3.6-4 4.2-1.8 0.4-3.4-1.2-3-3q0.1-0.4 0.2-0.6 0.4-0.9 0.9-1.8z"/><path class="e" d="m209.8 227.3c2.3-1.5 4.4-4.8 5.9 0 0.1 0.4 0.1 0.8 0 1.2-0.6 1.7-1.8 3.6-4.1 4.2-1.8 0.5-3.4-1.2-2.9-2.9q0.1-0.4 0.2-0.7 0.3-0.9 0.9-1.8z"/><path class="e" d="m208.8 248.4c-2.7-0.9-6.5-0.4-3.8-4.6 0.3-0.3 0.6-0.6 1-0.8 1.6-0.6 3.9-0.9 5.8 0.5 1.4 1.1 1.2 3.4-0.4 4.2q-0.4 0.1-0.7 0.2-0.9 0.3-1.9 0.5z"/><path class="e" d="m201.6 264.2c-2.7-0.9-6.6-0.4-3.8-4.6 0.2-0.3 0.6-0.6 0.9-0.8 1.7-0.6 3.9-0.9 5.9 0.5 1.4 1.1 1.2 3.4-0.4 4.2q-0.4 0.1-0.7 0.2-0.9 0.3-1.9 0.5z"/><path class="e" d="m688 146.3c2.4-4.9 7.3-7.9 11.2-6.4 3.4 1.3 4.4 4.5 4.2 8.7-0.6 4.8-3.3 9.2-7.4 11.8-3.7 2-7.8 2.9-9.7 0-1.4-2.6-1.5-6.1-0.4-9.7 0.5-1.4 1.2-2.9 2.1-4.4z"/><path class="e" d="m620.1 145.7c2.6-5 7.3-8.4 10.7-7.1 3 0.9 3.6 4 3.1 8.2-0.9 4.7-3.7 9.2-7.6 12.1-3.5 2.3-7.3 3.5-8.8 0.8-1-2.4-0.9-5.9 0.4-9.5 0.6-1.5 1.3-3 2.2-4.5z"/><path class="e" d="m657.2 171.9c6.7-4.5 12.6-13.8 16.4-0.4 0.3 1.1 0.3 2.4-0.1 3.5-1.5 4.8-5 10.2-11.4 12-5 1.3-9.5-3.2-8.1-8.1 0.2-0.8 0.4-1.4 0.6-2 0.7-1.6 1.6-3.4 2.6-5z"/><path class="e" d="m665.5 202.8c7.9 1.7 18.7-0.4 11.6 11.6-0.6 1-1.5 1.9-2.6 2.4-4.5 2.2-10.8 3.4-16.6-0.1-4.4-2.6-4.2-9 0.3-11.4 0.7-0.3 1.3-0.7 1.9-0.9 1.6-0.6 3.5-1.2 5.4-1.6z"/><path class="e" d="m668.4 286.4c7.9 1.7 18.7-0.4 11.5 11.6-0.6 1-1.4 1.9-2.5 2.4-4.5 2.2-10.9 3.4-16.6-0.1-4.4-2.6-4.2-9 0.3-11.4 0.7-0.3 1.3-0.7 1.8-0.9 1.7-0.7 3.6-1.2 5.5-1.6z"/><path class="e" d="m700.6 229.9c7.8 1.7 18.6-0.4 11.5 11.6-0.6 1-1.5 1.9-2.5 2.4-4.6 2.2-10.9 3.4-16.6 0-4.4-2.7-4.2-9.1 0.3-11.5 0.7-0.3 1.3-0.6 1.8-0.9 1.7-0.6 3.5-1.2 5.5-1.6z"/><path class="e" d="m603.2 193c6.7-4.5 12.6-13.8 16.4-0.3 0.3 1.1 0.3 2.3 0 3.4-1.6 4.9-5.1 10.3-11.5 12.1-4.9 1.3-9.5-3.2-8.1-8.1 0.2-0.8 0.4-1.5 0.6-2 0.7-1.7 1.6-3.4 2.6-5.1z"/><path class="e" d="m626.9 300.4c6.6-4.5 12.5-13.8 16.3-0.4 0.3 1.1 0.4 2.4 0 3.5-1.5 4.8-5 10.2-11.5 12-4.9 1.3-9.4-3.2-8-8.1 0.2-0.8 0.4-1.4 0.6-2 0.7-1.6 1.5-3.3 2.6-5z"/><path class="e" d="m653 253.8c6.6-4.5 12.5-13.8 16.3-0.4 0.3 1.1 0.3 2.4 0 3.5-1.6 4.8-5.1 10.2-11.5 12-4.9 1.3-9.4-3.2-8.1-8.1 0.3-0.8 0.5-1.4 0.6-2 0.7-1.6 1.6-3.4 2.7-5z"/><path class="e" d="m657.4 127.4c5.1-3.3 9.6-10.3 12.7 0 0.3 0.9 0.3 1.8 0 2.6-1.1 3.7-3.7 7.8-8.7 9-3.8 1-7.4-2.5-6.4-6.2q0.3-0.9 0.5-1.5c0.5-1.3 1.1-2.6 1.9-3.9z"/><path class="e" d="m695.6 189.2c5.1-3.3 9.6-10.3 12.7 0 0.2 0.8 0.3 1.8 0 2.6-1.1 3.7-3.8 7.8-8.7 9-3.8 1-7.4-2.6-6.4-6.3q0.2-0.8 0.4-1.4c0.5-1.3 1.2-2.6 2-3.9z"/><path class="e" d="m590.4 236c5.1-3.4 9.5-10.4 12.6-0.1 0.3 0.9 0.3 1.8 0.1 2.7-1.2 3.6-3.8 7.7-8.8 9-3.8 0.9-7.4-2.6-6.3-6.3q0.2-0.9 0.4-1.5c0.5-1.3 1.2-2.6 2-3.8z"/><path class="e" d="m591.2 296.5c5.1-3.4 9.5-10.4 12.6-0.1 0.3 0.9 0.3 1.8 0.1 2.7-1.2 3.6-3.8 7.7-8.8 9-3.8 0.9-7.4-2.6-6.4-6.3q0.3-0.9 0.5-1.5c0.5-1.3 1.2-2.6 2-3.8z"/><path class="e" d="m635.1 190c5.1-3.3 9.6-10.3 12.7 0 0.3 0.8 0.3 1.8 0 2.6-1.1 3.7-3.7 7.7-8.7 9-3.8 1-7.4-2.6-6.4-6.3q0.3-0.8 0.5-1.5c0.5-1.2 1.1-2.5 1.9-3.8z"/><path class="e" d="m633 235.3c-5.8-1.8-14.1-0.8-8.1-9.8 0.5-0.7 1.2-1.3 2-1.7 3.6-1.4 8.4-2 12.6 1.1 3.1 2.3 2.7 7.3-0.9 8.9q-0.8 0.3-1.4 0.6c-1.3 0.4-2.7 0.7-4.2 0.9z"/><path class="e" d="m617.4 269.3c-5.8-1.8-14-0.8-8-9.8 0.5-0.7 1.2-1.3 2-1.7 3.5-1.4 8.3-2 12.5 1.1 3.1 2.3 2.7 7.3-0.8 8.9q-0.8 0.3-1.4 0.6c-1.3 0.4-2.8 0.7-4.3 0.9z"/><path class="d" d="m53.1-188.8c11.3 0.9 21.6 6.2 29.5 13.2 3.9 3.6 7.4 7.6 10.3 12 2.9 4.3 5.3 9 7.2 13.8 3.7 9.6 5.4 19.5 6.2 29.3 0.4 4.9 0.5 9.8 0.5 14.6 0 4.8-0.4 9.6-0.5 14.4-1.2 19.2-4.2 38.3-9.2 56.8-5.1 18.5-12 36.4-20.5 53.5-8.5 17.1-19 33.2-30.9 48.1l-4.4 5.6c-1.6 1.8-3.2 3.5-4.8 5.3l-4.8 5.3-2.4 2.6-2.5 2.5-10.3 9.9-11 9.2c-1.7 1.6-3.7 3-5.6 4.4l-5.8 4.2c-1.9 1.3-3.8 2.9-5.8 4.1l-6 3.8c-8 5.2-16.4 9.6-24.8 13.9-16.8 8.5-33.8 16.6-48.6 28.1l-1.3-1.6c14.7-12.1 31.8-20.7 48.2-29.7 8.3-4.5 16.4-9.1 24.1-14.4l5.8-3.9c2-1.2 3.7-2.8 5.6-4.2l5.5-4.2c1.9-1.5 3.8-2.9 5.5-4.5l10.4-9.2 9.8-10 2.4-2.5 2.3-2.7 4.5-5.3c1.5-1.7 3.1-3.5 4.5-5.3l4.2-5.6c11.2-14.8 20.9-30.7 28.7-47.6 7.8-16.8 14-34.3 18.4-52.3 4.3-18 6.7-36.3 7.3-54.7 0-4.6 0.2-9.3 0.1-13.8-0.1-4.6-0.4-9.2-0.9-13.7-0.9-8.9-2.8-17.6-6.1-25.5-1.7-4-3.7-7.7-6.1-11.1-2.4-3.4-5.2-6.4-8.4-9.1-6.2-5.3-13.7-8.7-21.3-9.1z"/></g></svg>