<svg version="1.2" xmlns="http://www.w3.org/2000/svg" viewBox="0 0 826 826" width="826" height="826"><defs><clipPath clipPathUnits="userSpaceOnUse" id="cp1"><path d="m0 0h826v826h-826z"/></clipPath></defs><style>.a{fill:#e7b6a2}.b{fill:#dd7b38}.c{fill:#01466a}.d{fill:#fff}</style><g clip-path="url(#cp1)"><g style="opacity:.3"><path class="a" d="m594 318.7c0 213.9-177.5 387.3-396.5 387.3-36.5 0-71.8-4.8-105.4-13.8q-12.6-3.4-24.8-7.6c-211-33.9-268.6-259.8-257.5-443.9 3.7-7 7.6-14 11.4-20.9 50.5-90.3 105.4-192.2 186.6-255.8 6.7-5.2 13.7-10.2 21-15 46.5-29.1 99.6-52.2 154.9-42.9 55.3 6.9 106 11.5 161.4 4.6 9.6-1.2 17.6-0.7 24.3 1.2 6.8 1.8 12.3 5 17 9.1 20.9 26.6 34.7 56.5 62.4 79.6 53 43.8 136 64.5 145.2 131.4 4.6 36.9-20.7 73.7-6.9 114.1q2.3 11.7 3.8 23.7c2.1 16 3.1 32.4 3.1 48.9z"/></g><path class="b" d="m-24.7 573.6c3 26.8 27.6 47.4 54 53.4 26.3 6.1 53.9 0.5 79.9-6.9 55.2-15.8 108.7-39.9 165.8-46.5 30.2-3.5 63.4-1 86.5 18.6 21.3 18.1 29.7 46.9 45.8 69.7 33.8 47.7 99.6 64.1 157.1 53.8 27.7-4.9 54.2-15.1 81.8-20.8 27.5-5.7 57.4-6.6 82.5 6.1 26.5 13.4 43.9 40.5 52.4 68.9 8.5 28.4 9.2 58.5 9.8 88.1h-842.9v-285.7z"/><path class="c" d="m-70.9 549.9c3.7 22.6 15 43.5 30.3 60.2 15.3 16.9 35 29.5 56.3 37.2 21.4 7.8 44.2 10.8 67 10.4 11.3-0.2 22.7-1.4 33.9-3.2 11.2-1.9 22.3-4.6 33.3-7.7 22.1-6.1 44.1-13.6 67.1-18 22.9-4.5 47.3-5.3 70.4 1.4 5.8 1.6 11.3 3.9 16.8 6.6 5.4 2.7 10.5 6 15.3 9.8 1.2 0.9 2.2 2 3.4 2.9 1.1 1.1 2.3 2.1 3.3 3.2 2.2 2.1 4.2 4.4 6.1 6.7 3.8 4.7 7.1 9.5 10.3 14.5 6.4 9.8 11.9 19.8 18.9 28.5l2.5 3.3 2.8 3.2c1.8 2.1 3.6 4.3 5.5 6.3 4.1 3.9 7.9 8 12.3 11.5 17 14.7 37.2 25.6 58.4 32.9l8.1 2.4c1.3 0.3 2.7 0.8 4 1.1l4.2 0.9c2.7 0.6 5.4 1.3 8.2 1.7l8.3 1.3c11.2 1.2 22.4 1.8 33.6 0.7 22.3-1.5 44-8.8 65.3-17 21.4-8.2 42.9-17.5 65.8-23 45.9-10.9 95.5-5.2 137.2 16.4 10.4 5.5 20.3 12.1 29.1 20 8.7 8 16.3 17.2 22 27.6 5.5 10.4 9.3 21.8 10.6 33.5 1.3 11.7-0.1 23.7-4.3 34.7l-1.9-0.7c3.6-10.8 4.3-22.4 2.7-33.5-1.6-11.2-5.5-22-11.2-31.7-5.7-9.7-13.2-18.2-21.7-25.6-8.6-7.3-18.1-13.4-28.2-18.5-20.3-10-42.5-16.1-65-18.3-22.5-2.2-45.3-0.8-67.2 4.7-21.9 5.5-42.9 14.7-64.5 23-10.8 4.2-21.8 8.2-33.1 11.4-2.8 0.9-5.7 1.5-8.6 2.3-2.8 0.7-5.8 1.3-8.6 1.9l-8.9 1.3c-1.4 0.2-2.9 0.5-4.4 0.6l-4.4 0.3c-11.8 1.1-23.7 0.4-35.5-1l-8.7-1.3c-2.9-0.5-5.8-1.2-8.7-1.8l-4.3-1c-1.5-0.3-2.9-0.8-4.3-1.2l-8.5-2.6c-22.3-7.7-43.4-19.2-61.2-34.8-4.7-3.7-8.7-8-12.9-12.1-2.1-2.2-3.9-4.5-5.9-6.7l-2.9-3.4-2.7-3.5c-7.4-9.3-13-19.7-19.1-29.2-6.1-9.6-12.8-18.6-21.3-25.4-4.2-3.4-8.8-6.3-13.7-8.8-5-2.4-10-4.6-15.4-6.1-10.6-3.2-21.8-4.6-33-4.9q-16.8-0.2-33.6 3c-22.4 3.9-44.3 11.1-66.7 17.1-11.2 3-22.5 5.6-34.1 7.4-11.5 1.8-23.2 2.8-34.9 2.9-23.3 0.3-46.9-3.4-68.7-11.8-21.9-8.3-41.9-21.8-57.3-39.4-15.5-17.4-26.4-39.2-29.6-62.3z"/><path class="c" d="m814.4 853.3l-1.8-1c17.5-32.2 26.3-63.2 26.1-92.1-0.2-34.3-14-66.4-36.9-85.8-28.8-24.5-70.1-28.5-98.6-29.4-34-1-68.3 1.5-101.9 7.4-5.9 1.1-11.9 2.3-17.8 3.4-29.5 5.7-60 11.7-89.3 4.6-37.9-9.2-66-37.8-93.1-65.5-19.4-19.9-39.5-40.4-63.3-54.1-35.9-20.7-80.9-25.2-120.3-12-14.9 5-29.1 12.5-42.8 19.7-11.9 6.2-24.2 12.6-36.9 17.5-63.8 24.4-141.2 7-188.4-42.4l1.5-1.4c46.6 48.8 123.1 66 186.1 41.9 12.7-4.8 24.9-11.2 36.7-17.4 13.8-7.2 28.1-14.7 43.2-19.8 39.9-13.4 85.5-8.8 121.9 12.2 24 13.8 44.2 34.4 63.7 54.4 28.2 28.7 54.8 55.9 92.1 65 29 7 59.2 1 88.5-4.7 5.9-1.1 11.9-2.3 17.9-3.3 33.7-6 68.1-8.5 102.3-7.5 28.8 0.9 70.5 5 99.8 29.9 23.4 19.8 37.4 52.4 37.6 87.3 0.2 29.3-8.7 60.6-26.3 93.1z"/><path class="d" d="m472.1 921.7l-1.8-0.9c10-18.5 15.1-36.2 15-52.8-0.2-19.6-8-37.9-21.1-49-16.5-14-40.1-16.3-56.4-16.8-19.6-0.6-39.3 0.9-58.5 4.3q-5.1 0.9-10.3 1.9c-17 3.3-34.6 6.8-51.5 2.7-21.9-5.3-38.1-21.9-53.8-37.8-11.1-11.4-22.6-23.2-36.2-31-20.6-11.9-46.3-14.5-68.9-6.9-8.5 2.9-16.6 7.1-24.5 11.3-6.9 3.6-13.9 7.3-21.3 10.1-36.8 14.1-81.5 4-108.7-24.5l1.4-1.4c26.7 27.9 70.5 37.8 106.6 24 7.2-2.8 14.2-6.4 21-10 8-4.2 16.2-8.5 24.9-11.4 23.1-7.7 49.4-5.1 70.5 7 13.8 8 25.4 19.9 36.7 31.4 16.1 16.5 31.4 32.1 52.7 37.2 16.6 4 33.9 0.6 50.7-2.7q5.2-1 10.3-1.9c19.4-3.4 39.2-4.9 58.9-4.3 16.6 0.5 40.7 2.9 57.7 17.3 13.5 11.4 21.6 30.3 21.8 50.5 0.1 16.9-5.1 35-15.2 53.7z"/><path class="c" d="m446.5-19h422.3v347c-13.1 19-40.4 22.3-62.6 16.4-12.1-3.2-24.1-8.9-31.4-19-6.6-9.2-8.6-20.9-11.3-32-8.3-33.2-8.6-59-33-83.1-5.5-5.5-21.9-14-29.6-14.9-7.6-0.7-28.4 8.6-32.7 14.9-27.4 40.1-53.2 52-91.9 32.6-17.8-8.9-28-30.2-28.7-37.4-1.7-18.9 4.9-37.6 6.5-56.5 1.6-19-4-41.2-21.3-49.1-9.3-4.2-22-9.2-32.2-8.3-16.6 1.5-31.2 8.8-47.8 10.3-17.6 1.5-39.3 1.1-47.8-14.5-5.6-10.2-2.6-23.2 3.3-33.3 5.9-10.1 14.3-18.5 20.4-28.4 6.1-10 9.8-22.7 4.9-33.3z"/><path class="b" d="m803.7 322c-4.4 0-8.9-0.6-13.3-1.9-11.8-3.4-22.7-12.3-32.3-26.4-4.3-6.1-8.1-12.7-11.7-19.1-8.2-14.3-16-27.9-28.5-36.7-16.3-11.3-40.5-13.3-66.5-5.3q-1.9 0.6-3.8 1.2c-8.3 2.6-16.8 5.3-25.9 4.1-21.7-3-33.5-26.8-35.1-47.6-0.6-7.2-0.5-14.4-0.3-21.4 0.2-12.2 0.5-23.7-2.9-34.6-7.5-24.3-34.9-40.6-59.8-35.7-3.7 0.7-7.4 1.9-11.3 3.1-7.4 2.3-15 4.6-23.2 4.2-20.8-1.1-34.9-19.2-41.5-30-16.9-27.6-22.7-61.6-16.1-93.2l9.8 2c-6.1 29.2-0.7 60.6 14.8 86 5.6 9.1 17.3 24.4 33.5 25.2 6.5 0.3 12.9-1.7 19.7-3.8 4-1.2 8.1-2.5 12.3-3.3 29.8-5.9 62.5 13.6 71.4 42.6 3.8 12.4 3.5 25.3 3.3 37.7-0.2 6.8-0.3 13.7 0.2 20.4 1.4 17 10.3 36.3 26.6 38.5 6.9 0.9 13.9-1.3 21.4-3.7q2-0.7 3.9-1.3c29-8.9 56.4-6.4 75.2 6.7 14.4 10.1 23.1 25.3 31.5 39.9 3.5 6.2 7.2 12.6 11.2 18.5 8.3 12.1 17.4 19.6 27 22.4 13.1 3.9 27.6-0.7 41.3-6.3 14.6-5.9 33.3-14.4 47.8-27.7 14.4-13.1 23.1-30 23.7-46.1l10 0.4c-0.8 18.8-10.6 38.2-27 53.1-15.7 14.4-35.3 23.4-50.7 29.6-11.2 4.5-22.9 8.5-34.7 8.5z"/><path class="d" d="m481.2-27.1c-2.8 6.7-4.7 13.7-5.5 20.9-0.4 3.6-0.5 7.2-0.3 10.8 0.1 3.6 0.6 7.1 1.6 10.4 1.1 3.2 2.8 6.2 5.3 8.5 2.4 2.3 5.4 4 8.6 5.1 6.6 2.2 13.8 2.3 21 1.8 3.6-0.3 7.1-0.8 10.7-1.4q5.5-0.8 11-1.5c7.4-0.9 14.8-1.6 22.3-1.6 7.5 0 15.1 0.7 22.5 2.8 7.5 2 14.5 5.6 20.4 10.7 3 2.5 5.6 5.4 7.9 8.5 2.3 3.1 4.3 6.4 5.9 9.8 3.4 6.9 5.7 14.1 7.6 21.3 3.8 14.4 4.4 29.6 11.5 41.7 7.1 12 20.9 19.5 35 20.1 14.2 0.8 28.5-5.2 39.1-15l1.4 1.4c-10.5 10.7-25.3 17.5-40.6 17.3-15.3-0.3-30.5-8.1-38.9-21.4-4.1-6.7-6.3-14.1-7.8-21.4-1.6-7.3-2.8-14.4-4.7-21.4-1.8-7-4.1-13.9-7.3-20.2q-2.3-4.8-5.5-9c-2.1-2.8-4.4-5.4-7.1-7.6-2.6-2.3-5.5-4.2-8.6-5.9-1.5-0.8-3.1-1.5-4.7-2.2-1.7-0.5-3.3-1.3-5-1.7-6.8-1.9-13.9-2.6-21.1-2.7-7.2-0.1-14.4 0.6-21.7 1.4-7.2 0.8-14.4 2.2-22 2.6-7.5 0.4-15.3 0.2-22.7-2.5-3.6-1.3-7.2-3.4-10-6.2-2.9-2.9-4.9-6.5-6-10.3-1.1-3.7-1.4-7.6-1.4-11.3q-0.1-5.7 0.7-11.3c1.1-7.4 3.3-14.6 6.6-21.3z"/><path class="b" d="m516.7 133.4c-2 0.7-4.1 0.6-5.6-0.2-1.7-1.1-1.2-3.5 0-5.6 1.5-2.4 4-3.9 6.8-4.3 2.4-0.1 4.3 0.5 5 2.5 0.9 2.2-0.8 5-3.7 6.4q-1.2 0.8-2.5 1.2z"/><path class="b" d="m517 172.6c-2.1 0.8-4.1 0.8-5.5 0.2-1.5-0.8-0.9-3 0.5-5 1.6-2.3 4.2-3.9 7-4.4 2.4-0.3 4.1 0.1 4.7 1.8 0.7 1.9-1.2 4.6-4.1 6.1q-1.3 0.8-2.6 1.3z"/><path class="b" d="m501.6 151.5q-0.5 0.1-1.1 0.3c-2.9 0.8-5.5-1.8-4.7-4.6 1-3.8 4.1-5.8 6.9-6.7 0.6-0.2 1.4-0.2 2 0 7.8 2.2 2.4 5.6-0.2 9.4q-1.5 1-2.9 1.6z"/><path class="b" d="m485.7 148.3q-0.2 0.5-0.5 1.1c-1.4 2.6-5.1 2.7-6.6 0.2-2-3.4-1.3-7 0-9.6 0.3-0.6 0.8-1.1 1.4-1.5 6.9-4.1 5.7 2.1 6.7 6.7q-0.4 1.7-1 3.1z"/><path class="b" d="m437.5 146.7q-0.2 0.4-0.5 1c-1.4 2.6-5.1 2.7-6.6 0.2-2-3.3-1.3-7 0-9.6 0.3-0.6 0.8-1.1 1.4-1.4 6.9-4.2 5.7 2.1 6.6 6.6q-0.3 1.7-0.9 3.2z"/><path class="b" d="m470.1 128.1q-0.2 0.4-0.5 1.1c-1.4 2.6-5.1 2.7-6.6 0.1-2-3.3-1.3-6.9 0-9.6 0.3-0.6 0.7-1.1 1.3-1.4 7-4.1 5.7 2.1 6.7 6.6q-0.3 1.7-0.9 3.2z"/><path class="b" d="m489.4 182.6q-0.5 0.2-1.2 0.3c-2.8 0.8-5.4-1.8-4.6-4.6 1-3.7 4.1-5.7 6.9-6.6 0.6-0.2 1.3-0.2 2 0 7.8 2.1 2.4 5.5-0.2 9.4q-1.5 0.9-2.9 1.5z"/><path class="b" d="m427.5 169q-0.5 0.1-1.2 0.3c-2.8 0.8-5.4-1.8-4.6-4.6 1-3.8 4.1-5.8 6.9-6.7 0.6-0.2 1.3-0.2 2 0 7.8 2.2 2.4 5.6-0.2 9.4q-1.5 1-2.9 1.6z"/><path class="b" d="m454.3 153.9q-0.4 0.2-1.1 0.4c-2.8 0.8-5.4-1.8-4.7-4.7 1.1-3.7 4.2-5.7 7-6.6 0.6-0.2 1.3-0.2 2 0 7.7 2.2 2.4 5.6-0.2 9.4q-1.5 0.9-3 1.5z"/><path class="b" d="m527.9 151q-0.3 0.1-0.8 0.2c-2.2 0.6-4.2-1.5-3.7-3.6 0.8-2.9 3.1-4.4 5.2-5.1 0.5-0.1 1-0.1 1.5 0 6 1.8 2 4.4 0 7.3q-1.1 0.7-2.2 1.2z"/><path class="b" d="m492.3 128.9q-0.4 0.2-0.9 0.3c-2.1 0.6-4.1-1.5-3.6-3.7 0.7-2.8 3.1-4.4 5.2-5 0.5-0.2 1-0.1 1.5 0 6 1.8 1.9 4.4 0 7.3q-1.1 0.7-2.2 1.1z"/><path class="b" d="m465.3 189.6q-0.3 0.2-0.8 0.3c-2.2 0.6-4.2-1.5-3.7-3.7 0.8-2.8 3.1-4.4 5.2-5 0.5-0.2 1.1-0.1 1.6 0 5.9 1.8 1.9 4.4-0.1 7.3q-1.1 0.7-2.2 1.1z"/><path class="b" d="m430.4 189.2q-0.3 0.1-0.8 0.2c-2.2 0.6-4.2-1.4-3.6-3.6 0.7-2.9 3-4.4 5.2-5.1 0.4-0.1 1-0.1 1.5 0 5.9 1.8 1.9 4.4 0 7.4q-1.2 0.6-2.3 1.1z"/><path class="b" d="m491.8 163.8q-0.3 0.1-0.8 0.3c-2.2 0.6-4.2-1.5-3.7-3.7 0.8-2.9 3.1-4.4 5.2-5 0.5-0.2 1.1-0.2 1.6 0 5.9 1.8 1.9 4.4-0.1 7.3q-1.1 0.7-2.2 1.1z"/><path class="b" d="m468.5 161.5q0.1-0.4 0.3-0.8c0.9-2.1 3.8-2.3 5.1-0.5 1.8 2.4 1.5 5.2 0.6 7.2-0.2 0.5-0.5 0.9-0.9 1.2-5.2 3.4-4.6-1.3-5.7-4.7q0.2-1.3 0.6-2.4z"/><path class="b" d="m448.8 170.5q0.2-0.4 0.4-0.9c0.9-2 3.8-2.2 5.1-0.4 1.8 2.4 1.5 5.2 0.6 7.2-0.2 0.5-0.5 0.9-1 1.2-5.1 3.4-4.5-1.3-5.6-4.7q0.2-1.3 0.5-2.4z"/><path class="d" d="m683.5 572.8c2.1-4.2 6.3-6.8 9.6-5.5 2.9 1.1 3.7 3.9 3.6 7.5-0.5 4.1-2.9 7.8-6.3 10.1-3.2 1.7-6.8 2.4-8.3 0-1.2-2.3-1.4-5.3-0.4-8.3 0.4-1.3 1-2.6 1.8-3.8z"/><path class="d" d="m625.5 572.3c2.2-4.3 6.2-7.2 9.1-6.1 2.5 0.8 3.1 3.5 2.6 7-0.7 4.1-3.1 7.9-6.5 10.4-3 2-6.2 3-7.5 0.7-0.9-2.1-0.8-5.1 0.4-8.2 0.4-1.2 1.1-2.5 1.9-3.8z"/><path class="d" d="m657.2 594.7c5.7-3.9 10.7-11.8 14-0.3 0.2 0.9 0.3 2-0.1 2.9-1.3 4.1-4.3 8.8-9.8 10.3-4.2 1.2-8.1-2.7-6.9-6.9 0.2-0.7 0.4-1.3 0.5-1.7 0.6-1.4 1.4-2.9 2.3-4.3z"/><path class="d" d="m664.3 621.1c6.7 1.5 15.9-0.3 9.9 10-0.6 0.8-1.3 1.5-2.2 2-3.9 1.9-9.3 2.9-14.2-0.1-3.8-2.2-3.6-7.7 0.2-9.7 0.6-0.3 1.2-0.6 1.6-0.8 1.4-0.6 3-1 4.7-1.4z"/><path class="d" d="m666.8 692.6c6.7 1.5 15.9-0.3 9.8 10-0.5 0.8-1.2 1.6-2.1 2-3.9 1.9-9.4 2.9-14.3 0-3.7-2.3-3.5-7.8 0.3-9.8 0.6-0.3 1.1-0.6 1.6-0.8 1.4-0.5 3-1 4.7-1.4z"/><path class="d" d="m694.3 644.3c6.7 1.5 15.9-0.3 9.8 10-0.5 0.8-1.2 1.5-2.1 2-3.9 1.9-9.3 2.9-14.2-0.1-3.8-2.2-3.6-7.7 0.2-9.7 0.6-0.3 1.2-0.6 1.6-0.8 1.4-0.6 3-1 4.7-1.4z"/><path class="d" d="m611 612.8c5.7-3.9 10.7-11.8 14-0.3 0.3 0.9 0.3 2 0 2.9-1.4 4.1-4.3 8.8-9.9 10.3-4.2 1.2-8-2.7-6.8-6.9 0.1-0.7 0.3-1.2 0.5-1.7 0.5-1.4 1.3-2.9 2.2-4.3z"/><path class="d" d="m631.2 704.6c5.7-3.9 10.8-11.8 14-0.3 0.3 0.9 0.3 2 0 2.9-1.3 4.2-4.3 8.8-9.8 10.3-4.2 1.2-8.1-2.7-6.9-6.9 0.2-0.6 0.3-1.2 0.5-1.7 0.6-1.4 1.3-2.9 2.2-4.3z"/><path class="d" d="m653.5 664.7c5.7-3.8 10.8-11.8 14-0.3 0.3 1 0.3 2 0 3-1.3 4.1-4.3 8.7-9.8 10.3-4.2 1.1-8.1-2.8-6.9-7 0.2-0.6 0.3-1.2 0.5-1.6 0.6-1.5 1.3-2.9 2.2-4.4z"/><path class="d" d="m657.4 556.7c4.3-2.9 8.1-8.9 10.8-0.1 0.2 0.8 0.3 1.6 0 2.3-0.9 3.1-3.2 6.6-7.5 7.7-3.2 0.8-6.3-2.2-5.4-5.4q0.2-0.7 0.4-1.3 0.6-1.6 1.7-3.2z"/><path class="d" d="m690 609.5c4.4-2.9 8.2-8.9 10.9 0 0.2 0.7 0.2 1.5 0 2.2-1 3.1-3.2 6.6-7.5 7.7-3.2 0.9-6.3-2.2-5.4-5.4q0.2-0.7 0.3-1.2 0.7-1.6 1.7-3.3z"/><path class="d" d="m600 649.5c4.3-2.9 8.2-8.9 10.8 0 0.3 0.7 0.3 1.5 0.1 2.2-1 3.1-3.3 6.6-7.5 7.7-3.3 0.8-6.3-2.2-5.5-5.4q0.2-0.7 0.4-1.2 0.7-1.7 1.7-3.3z"/><path class="d" d="m600.7 701.2c4.3-2.8 8.1-8.8 10.8 0 0.2 0.7 0.3 1.5 0 2.3-0.9 3.1-3.2 6.6-7.5 7.7-3.2 0.8-6.3-2.2-5.4-5.4q0.2-0.8 0.4-1.3 0.6-1.6 1.7-3.3z"/><path class="d" d="m638.3 610.2c4.3-2.9 8.1-8.9 10.8 0 0.2 0.7 0.3 1.5 0 2.2-0.9 3.1-3.2 6.6-7.4 7.7-3.3 0.8-6.3-2.2-5.5-5.4q0.2-0.7 0.4-1.2 0.7-1.7 1.7-3.3z"/><path class="d" d="m636.5 648.9c-5-1.5-12.1-0.7-6.9-8.3 0.4-0.7 1-1.2 1.7-1.5 3-1.2 7.1-1.7 10.7 0.9 2.7 2 2.3 6.3-0.7 7.6q-0.7 0.3-1.2 0.5-1.7 0.6-3.6 0.8z"/><path class="d" d="m623.2 678c-5-1.5-12.1-0.7-7-8.3 0.5-0.7 1.1-1.2 1.8-1.5 3-1.2 7.1-1.7 10.7 0.9 2.7 2 2.3 6.3-0.7 7.6q-0.7 0.3-1.2 0.5-1.7 0.6-3.6 0.8z"/></g></svg>